<?xml version="1.0" encoding="UTF-8"?>
<svg xmlns="http://www.w3.org/2000/svg" xmlns:xlink="http://www.w3.org/1999/xlink" width="114pt" height="28pt" viewBox="0 0 114 28" version="1.1">
<g id="surface1">
<path style=" stroke:none;fill-rule:nonzero;fill:rgb(100%,100%,100%);fill-opacity:1;" d="M 6.140625 12.828125 L 5.011719 12.828125 C 3.566406 12.828125 2.382812 12.378906 1.457031 11.5 C 0.492188 10.488281 0 9.246094 0 7.800781 L 0 1.648438 C 0 1.199219 0.160156 0.808594 0.492188 0.492188 C 0.824219 0.160156 1.199219 0 1.648438 0 C 2.125 0 2.511719 0.160156 2.832031 0.492188 C 3.164062 0.808594 3.335938 1.199219 3.335938 1.648438 L 3.335938 7.800781 C 3.335938 8.117188 3.394531 8.464844 3.523438 8.824219 C 3.800781 9.257812 4.246094 9.492188 4.910156 9.492188 L 16.089844 9.492188 C 17.550781 9.492188 18.734375 9.9375 19.644531 10.820312 C 20.613281 11.832031 21.105469 13.074219 21.105469 14.515625 L 21.105469 26.289062 C 21.105469 26.738281 20.945312 27.113281 20.613281 27.445312 C 20.296875 27.761719 19.90625 27.9375 19.472656 27.9375 C 18.996094 27.9375 18.589844 27.761719 18.273438 27.445312 C 17.941406 27.113281 17.78125 26.738281 17.78125 26.289062 L 17.78125 14.515625 C 17.78125 14.199219 17.710938 13.851562 17.59375 13.507812 C 17.320312 13.058594 16.855469 12.828125 16.207031 12.828125 Z M 6.140625 12.828125 "/>
<path style=" stroke:none;fill-rule:nonzero;fill:rgb(100%,100%,100%);fill-opacity:1;" d="M 3.335938 21.25 L 3.335938 26.289062 C 3.335938 26.738281 3.164062 27.113281 2.84375 27.445312 C 2.511719 27.777344 2.125 27.9375 1.691406 27.9375 C 1.214844 27.9375 0.808594 27.777344 0.492188 27.445312 C 0.160156 27.113281 0 26.738281 0 26.289062 L 0 16.539062 C 0 16.09375 0.160156 15.714844 0.492188 15.382812 C 0.808594 15.050781 1.199219 14.894531 1.648438 14.894531 C 2.125 14.894531 2.511719 15.050781 2.84375 15.382812 C 3.164062 15.714844 3.335938 16.09375 3.335938 16.539062 Z M 3.335938 21.25 "/>
<path style=" stroke:none;fill-rule:nonzero;fill:rgb(100%,100%,100%);fill-opacity:1;" d="M 110.230469 12.828125 L 112.351562 12.828125 C 112.800781 12.828125 113.191406 12.667969 113.507812 12.335938 C 113.839844 12.019531 114 11.613281 114 11.136719 C 114 10.6875 113.839844 10.300781 113.507812 9.980469 C 113.191406 9.648438 112.800781 9.488281 112.351562 9.488281 L 102.589844 9.488281 C 101.144531 9.488281 99.945312 9.953125 98.992188 10.863281 C 98.050781 11.800781 97.574219 13.015625 97.574219 14.515625 L 97.574219 26.289062 C 97.574219 26.738281 97.734375 27.128906 98.066406 27.445312 C 98.386719 27.777344 98.789062 27.9375 99.265625 27.9375 C 99.699219 27.9375 100.089844 27.777344 100.421875 27.445312 C 100.738281 27.128906 100.914062 26.738281 100.914062 26.289062 L 100.914062 14.515625 C 100.914062 13.390625 101.449219 12.828125 102.546875 12.828125 Z M 110.230469 12.828125 "/>
<path style=" stroke:none;fill-rule:nonzero;fill:rgb(100%,100%,100%);fill-opacity:1;" d="M 52.839844 21.898438 L 52.839844 26.289062 C 52.839844 26.738281 52.679688 27.113281 52.347656 27.445312 C 52.03125 27.777344 51.640625 27.9375 51.191406 27.9375 C 50.730469 27.9375 50.328125 27.777344 50.007812 27.445312 C 49.675781 27.113281 49.515625 26.738281 49.515625 26.289062 L 49.515625 16.539062 C 49.515625 16.09375 49.675781 15.714844 50.007812 15.382812 C 50.328125 15.050781 50.714844 14.894531 51.148438 14.894531 C 51.625 14.894531 52.03125 15.050781 52.347656 15.382812 C 52.679688 15.714844 52.839844 16.09375 52.839844 16.539062 Z M 52.839844 21.898438 "/>
<path style=" stroke:none;fill-rule:nonzero;fill:rgb(100%,100%,100%);fill-opacity:1;" d="M 53.289062 12.828125 L 51.148438 12.828125 C 50.714844 12.828125 50.328125 12.667969 50.007812 12.335938 C 49.675781 12.019531 49.515625 11.613281 49.515625 11.136719 C 49.515625 10.6875 49.675781 10.300781 50.007812 9.980469 C 50.328125 9.648438 50.714844 9.488281 51.148438 9.488281 L 64.136719 9.488281 C 65.582031 9.488281 66.777344 9.953125 67.734375 10.863281 C 68.671875 11.800781 69.148438 13.015625 69.148438 14.515625 L 69.148438 26.289062 C 69.148438 26.738281 68.988281 27.113281 68.65625 27.445312 C 68.339844 27.761719 67.933594 27.9375 67.457031 27.9375 C 67.011719 27.9375 66.636719 27.761719 66.300781 27.445312 C 65.984375 27.113281 65.824219 26.738281 65.824219 26.289062 L 65.824219 14.515625 C 65.824219 13.390625 65.277344 12.828125 64.179688 12.828125 Z M 53.289062 12.828125 "/>
<path style=" stroke:none;fill-rule:nonzero;fill:rgb(100%,100%,100%);fill-opacity:1;" d="M 31.128906 27.9375 L 29.699219 27.9375 C 28.253906 27.9375 27.027344 27.445312 26.03125 26.464844 C 25.132812 25.539062 24.699219 24.355469 24.699219 22.910156 L 24.699219 14.515625 C 24.699219 13.246094 25.0625 12.148438 25.800781 11.238281 C 26.722656 10.066406 27.996094 9.488281 29.65625 9.488281 L 40.921875 9.488281 C 42.367188 9.488281 43.59375 9.980469 44.605469 10.964844 C 45.488281 11.875 45.933594 13.074219 45.933594 14.515625 L 45.933594 22.9375 C 45.933594 24.195312 45.558594 25.277344 44.824219 26.1875 C 43.871094 27.359375 42.570312 27.9375 40.921875 27.9375 L 29.699219 27.9375 Z M 28.023438 21.058594 L 28.023438 23.011719 C 28.023438 23.660156 28.238281 24.121094 28.6875 24.398438 C 29.050781 24.527344 29.382812 24.597656 29.699219 24.597656 L 40.980469 24.597656 C 41.660156 24.597656 42.136719 24.367188 42.410156 23.921875 C 42.539062 23.574219 42.597656 23.226562 42.597656 22.910156 L 42.597656 14.414062 C 42.597656 13.765625 42.382812 13.289062 41.933594 13.027344 C 41.585938 12.898438 41.242188 12.828125 40.921875 12.828125 L 29.597656 12.828125 C 28.949219 12.828125 28.484375 13.058594 28.210938 13.503906 C 28.082031 13.851562 28.023438 14.199219 28.023438 14.515625 L 28.023438 23.011719 Z M 28.023438 21.058594 "/>
<path style=" stroke:none;fill-rule:nonzero;fill:rgb(100%,100%,100%);fill-opacity:1;" d="M 79.1875 27.9375 L 77.773438 27.9375 C 76.3125 27.9375 75.085938 27.445312 74.089844 26.464844 C 73.191406 25.539062 72.757812 24.355469 72.757812 22.910156 L 72.757812 14.515625 C 72.757812 13.246094 73.121094 12.148438 73.859375 11.238281 C 74.78125 10.066406 76.066406 9.488281 77.714844 9.488281 L 88.980469 9.488281 C 90.425781 9.488281 91.652344 9.980469 92.664062 10.964844 C 93.546875 11.875 93.992188 13.074219 93.992188 14.515625 L 93.992188 22.9375 C 93.992188 24.195312 93.617188 25.277344 92.882812 26.1875 C 91.929688 27.359375 90.628906 27.9375 88.980469 27.9375 L 77.773438 27.9375 Z M 76.082031 21.058594 L 76.082031 23.011719 C 76.082031 23.660156 76.296875 24.121094 76.746094 24.398438 C 77.109375 24.527344 77.441406 24.597656 77.773438 24.597656 L 89.039062 24.597656 C 89.71875 24.597656 90.195312 24.367188 90.46875 23.921875 C 90.597656 23.574219 90.65625 23.226562 90.65625 22.910156 L 90.65625 14.414062 C 90.65625 13.765625 90.441406 13.289062 90.007812 13.027344 C 89.644531 12.898438 89.300781 12.828125 88.980469 12.828125 L 77.65625 12.828125 C 77.007812 12.828125 76.542969 13.058594 76.269531 13.503906 C 76.140625 13.851562 76.082031 14.199219 76.082031 14.515625 L 76.082031 23.011719 Z M 76.082031 21.058594 "/>
</g>
</svg>
